%TF.GenerationSoftware,KiCad,Pcbnew,7.0.10*%
%TF.CreationDate,2024-02-12T12:18:25-08:00*%
%TF.ProjectId,PCB,5043422e-6b69-4636-9164-5f7063625858,1.0*%
%TF.SameCoordinates,Original*%
%TF.FileFunction,Legend,Top*%
%TF.FilePolarity,Positive*%
%FSLAX46Y46*%
G04 Gerber Fmt 4.6, Leading zero omitted, Abs format (unit mm)*
G04 Created by KiCad (PCBNEW 7.0.10) date 2024-02-12 12:18:25*
%MOMM*%
%LPD*%
G01*
G04 APERTURE LIST*
%ADD10C,0.150000*%
%ADD11C,0.120000*%
G04 APERTURE END LIST*
D10*
X216503533Y-123829819D02*
X216170200Y-123353628D01*
X215932105Y-123829819D02*
X215932105Y-122829819D01*
X215932105Y-122829819D02*
X216313057Y-122829819D01*
X216313057Y-122829819D02*
X216408295Y-122877438D01*
X216408295Y-122877438D02*
X216455914Y-122925057D01*
X216455914Y-122925057D02*
X216503533Y-123020295D01*
X216503533Y-123020295D02*
X216503533Y-123163152D01*
X216503533Y-123163152D02*
X216455914Y-123258390D01*
X216455914Y-123258390D02*
X216408295Y-123306009D01*
X216408295Y-123306009D02*
X216313057Y-123353628D01*
X216313057Y-123353628D02*
X215932105Y-123353628D01*
X216836867Y-122829819D02*
X217455914Y-122829819D01*
X217455914Y-122829819D02*
X217122581Y-123210771D01*
X217122581Y-123210771D02*
X217265438Y-123210771D01*
X217265438Y-123210771D02*
X217360676Y-123258390D01*
X217360676Y-123258390D02*
X217408295Y-123306009D01*
X217408295Y-123306009D02*
X217455914Y-123401247D01*
X217455914Y-123401247D02*
X217455914Y-123639342D01*
X217455914Y-123639342D02*
X217408295Y-123734580D01*
X217408295Y-123734580D02*
X217360676Y-123782200D01*
X217360676Y-123782200D02*
X217265438Y-123829819D01*
X217265438Y-123829819D02*
X216979724Y-123829819D01*
X216979724Y-123829819D02*
X216884486Y-123782200D01*
X216884486Y-123782200D02*
X216836867Y-123734580D01*
X232518305Y-110621819D02*
X232518305Y-109621819D01*
X232518305Y-109621819D02*
X232756400Y-109621819D01*
X232756400Y-109621819D02*
X232899257Y-109669438D01*
X232899257Y-109669438D02*
X232994495Y-109764676D01*
X232994495Y-109764676D02*
X233042114Y-109859914D01*
X233042114Y-109859914D02*
X233089733Y-110050390D01*
X233089733Y-110050390D02*
X233089733Y-110193247D01*
X233089733Y-110193247D02*
X233042114Y-110383723D01*
X233042114Y-110383723D02*
X232994495Y-110478961D01*
X232994495Y-110478961D02*
X232899257Y-110574200D01*
X232899257Y-110574200D02*
X232756400Y-110621819D01*
X232756400Y-110621819D02*
X232518305Y-110621819D01*
X234042114Y-110621819D02*
X233470686Y-110621819D01*
X233756400Y-110621819D02*
X233756400Y-109621819D01*
X233756400Y-109621819D02*
X233661162Y-109764676D01*
X233661162Y-109764676D02*
X233565924Y-109859914D01*
X233565924Y-109859914D02*
X233470686Y-109907533D01*
X203642067Y-139918200D02*
X203784924Y-139965819D01*
X203784924Y-139965819D02*
X204023019Y-139965819D01*
X204023019Y-139965819D02*
X204118257Y-139918200D01*
X204118257Y-139918200D02*
X204165876Y-139870580D01*
X204165876Y-139870580D02*
X204213495Y-139775342D01*
X204213495Y-139775342D02*
X204213495Y-139680104D01*
X204213495Y-139680104D02*
X204165876Y-139584866D01*
X204165876Y-139584866D02*
X204118257Y-139537247D01*
X204118257Y-139537247D02*
X204023019Y-139489628D01*
X204023019Y-139489628D02*
X203832543Y-139442009D01*
X203832543Y-139442009D02*
X203737305Y-139394390D01*
X203737305Y-139394390D02*
X203689686Y-139346771D01*
X203689686Y-139346771D02*
X203642067Y-139251533D01*
X203642067Y-139251533D02*
X203642067Y-139156295D01*
X203642067Y-139156295D02*
X203689686Y-139061057D01*
X203689686Y-139061057D02*
X203737305Y-139013438D01*
X203737305Y-139013438D02*
X203832543Y-138965819D01*
X203832543Y-138965819D02*
X204070638Y-138965819D01*
X204070638Y-138965819D02*
X204213495Y-139013438D01*
X204546829Y-138965819D02*
X204784924Y-139965819D01*
X204784924Y-139965819D02*
X204975400Y-139251533D01*
X204975400Y-139251533D02*
X205165876Y-139965819D01*
X205165876Y-139965819D02*
X205403972Y-138965819D01*
X206308733Y-139965819D02*
X205737305Y-139965819D01*
X206023019Y-139965819D02*
X206023019Y-138965819D01*
X206023019Y-138965819D02*
X205927781Y-139108676D01*
X205927781Y-139108676D02*
X205832543Y-139203914D01*
X205832543Y-139203914D02*
X205737305Y-139251533D01*
X233115133Y-114183819D02*
X232781800Y-113707628D01*
X232543705Y-114183819D02*
X232543705Y-113183819D01*
X232543705Y-113183819D02*
X232924657Y-113183819D01*
X232924657Y-113183819D02*
X233019895Y-113231438D01*
X233019895Y-113231438D02*
X233067514Y-113279057D01*
X233067514Y-113279057D02*
X233115133Y-113374295D01*
X233115133Y-113374295D02*
X233115133Y-113517152D01*
X233115133Y-113517152D02*
X233067514Y-113612390D01*
X233067514Y-113612390D02*
X233019895Y-113660009D01*
X233019895Y-113660009D02*
X232924657Y-113707628D01*
X232924657Y-113707628D02*
X232543705Y-113707628D01*
X233496086Y-113279057D02*
X233543705Y-113231438D01*
X233543705Y-113231438D02*
X233638943Y-113183819D01*
X233638943Y-113183819D02*
X233877038Y-113183819D01*
X233877038Y-113183819D02*
X233972276Y-113231438D01*
X233972276Y-113231438D02*
X234019895Y-113279057D01*
X234019895Y-113279057D02*
X234067514Y-113374295D01*
X234067514Y-113374295D02*
X234067514Y-113469533D01*
X234067514Y-113469533D02*
X234019895Y-113612390D01*
X234019895Y-113612390D02*
X233448467Y-114183819D01*
X233448467Y-114183819D02*
X234067514Y-114183819D01*
X206353385Y-119685809D02*
X206496242Y-119733428D01*
X206496242Y-119733428D02*
X206543861Y-119781047D01*
X206543861Y-119781047D02*
X206591480Y-119876285D01*
X206591480Y-119876285D02*
X206591480Y-120019142D01*
X206591480Y-120019142D02*
X206543861Y-120114380D01*
X206543861Y-120114380D02*
X206496242Y-120162000D01*
X206496242Y-120162000D02*
X206401004Y-120209619D01*
X206401004Y-120209619D02*
X206020052Y-120209619D01*
X206020052Y-120209619D02*
X206020052Y-119209619D01*
X206020052Y-119209619D02*
X206353385Y-119209619D01*
X206353385Y-119209619D02*
X206448623Y-119257238D01*
X206448623Y-119257238D02*
X206496242Y-119304857D01*
X206496242Y-119304857D02*
X206543861Y-119400095D01*
X206543861Y-119400095D02*
X206543861Y-119495333D01*
X206543861Y-119495333D02*
X206496242Y-119590571D01*
X206496242Y-119590571D02*
X206448623Y-119638190D01*
X206448623Y-119638190D02*
X206353385Y-119685809D01*
X206353385Y-119685809D02*
X206020052Y-119685809D01*
X206877195Y-119209619D02*
X207448623Y-119209619D01*
X207162909Y-120209619D02*
X207162909Y-119209619D01*
X208305766Y-120209619D02*
X207734338Y-120209619D01*
X208020052Y-120209619D02*
X208020052Y-119209619D01*
X208020052Y-119209619D02*
X207924814Y-119352476D01*
X207924814Y-119352476D02*
X207829576Y-119447714D01*
X207829576Y-119447714D02*
X207734338Y-119495333D01*
X215982905Y-128300219D02*
X215982905Y-127300219D01*
X215982905Y-127300219D02*
X216221000Y-127300219D01*
X216221000Y-127300219D02*
X216363857Y-127347838D01*
X216363857Y-127347838D02*
X216459095Y-127443076D01*
X216459095Y-127443076D02*
X216506714Y-127538314D01*
X216506714Y-127538314D02*
X216554333Y-127728790D01*
X216554333Y-127728790D02*
X216554333Y-127871647D01*
X216554333Y-127871647D02*
X216506714Y-128062123D01*
X216506714Y-128062123D02*
X216459095Y-128157361D01*
X216459095Y-128157361D02*
X216363857Y-128252600D01*
X216363857Y-128252600D02*
X216221000Y-128300219D01*
X216221000Y-128300219D02*
X215982905Y-128300219D01*
X216935286Y-127395457D02*
X216982905Y-127347838D01*
X216982905Y-127347838D02*
X217078143Y-127300219D01*
X217078143Y-127300219D02*
X217316238Y-127300219D01*
X217316238Y-127300219D02*
X217411476Y-127347838D01*
X217411476Y-127347838D02*
X217459095Y-127395457D01*
X217459095Y-127395457D02*
X217506714Y-127490695D01*
X217506714Y-127490695D02*
X217506714Y-127585933D01*
X217506714Y-127585933D02*
X217459095Y-127728790D01*
X217459095Y-127728790D02*
X216887667Y-128300219D01*
X216887667Y-128300219D02*
X217506714Y-128300219D01*
X233089733Y-104449619D02*
X232756400Y-103973428D01*
X232518305Y-104449619D02*
X232518305Y-103449619D01*
X232518305Y-103449619D02*
X232899257Y-103449619D01*
X232899257Y-103449619D02*
X232994495Y-103497238D01*
X232994495Y-103497238D02*
X233042114Y-103544857D01*
X233042114Y-103544857D02*
X233089733Y-103640095D01*
X233089733Y-103640095D02*
X233089733Y-103782952D01*
X233089733Y-103782952D02*
X233042114Y-103878190D01*
X233042114Y-103878190D02*
X232994495Y-103925809D01*
X232994495Y-103925809D02*
X232899257Y-103973428D01*
X232899257Y-103973428D02*
X232518305Y-103973428D01*
X234042114Y-104449619D02*
X233470686Y-104449619D01*
X233756400Y-104449619D02*
X233756400Y-103449619D01*
X233756400Y-103449619D02*
X233661162Y-103592476D01*
X233661162Y-103592476D02*
X233565924Y-103687714D01*
X233565924Y-103687714D02*
X233470686Y-103735333D01*
D11*
%TO.C,R3*%
X216897264Y-122460000D02*
X216443136Y-122460000D01*
X216897264Y-120990000D02*
X216443136Y-120990000D01*
%TO.C,D1*%
X235116400Y-109477000D02*
X235116400Y-107557000D01*
X235116400Y-107557000D02*
X232256400Y-107557000D01*
X232256400Y-109477000D02*
X235116400Y-109477000D01*
%TO.C,SW1*%
X210385400Y-136601000D02*
X210385400Y-134101000D01*
X210385400Y-134101000D02*
X207885400Y-134101000D01*
X210085400Y-138421000D02*
X210085400Y-134401000D01*
X210085400Y-136711000D02*
X209585400Y-136711000D01*
X210085400Y-135901000D02*
X209085400Y-135901000D01*
X210085400Y-134401000D02*
X199865400Y-134401000D01*
X209585400Y-137921000D02*
X200365400Y-137921000D01*
X209585400Y-136711000D02*
X209585400Y-137921000D01*
X209085400Y-135901000D02*
X209085400Y-134401000D01*
X200865400Y-135901000D02*
X200865400Y-134401000D01*
X200365400Y-137921000D02*
X200365400Y-136711000D01*
X200365400Y-136711000D02*
X199865400Y-136711000D01*
X199865400Y-138421000D02*
X210085400Y-138421000D01*
X199865400Y-135901000D02*
X200865400Y-135901000D01*
X199865400Y-134401000D02*
X199865400Y-138421000D01*
%TO.C,R2*%
X233054736Y-114644000D02*
X233508864Y-114644000D01*
X233054736Y-116114000D02*
X233508864Y-116114000D01*
%TO.C,BT1*%
X201229100Y-124354800D02*
X201829100Y-124654800D01*
X201229100Y-124954800D02*
X201229100Y-124354800D01*
X201829100Y-124654800D02*
X201229100Y-124954800D01*
X202029100Y-120844800D02*
X202029100Y-129564800D01*
X202029100Y-129564800D02*
X212249100Y-129564800D01*
X212249100Y-120844800D02*
X202029100Y-120844800D01*
X212249100Y-129564800D02*
X212249100Y-120844800D01*
%TO.C,D2*%
X218581000Y-127155400D02*
X218581000Y-125235400D01*
X218581000Y-125235400D02*
X215721000Y-125235400D01*
X215721000Y-127155400D02*
X218581000Y-127155400D01*
%TO.C,R1*%
X233483464Y-103079800D02*
X233029336Y-103079800D01*
X233483464Y-101609800D02*
X233029336Y-101609800D01*
%TD*%
M02*
