%TF.GenerationSoftware,KiCad,Pcbnew,7.0.10*%
%TF.CreationDate,2024-02-12T12:18:25-08:00*%
%TF.ProjectId,PCB,5043422e-6b69-4636-9164-5f7063625858,1.0*%
%TF.SameCoordinates,Original*%
%TF.FileFunction,Legend,Bot*%
%TF.FilePolarity,Positive*%
%FSLAX46Y46*%
G04 Gerber Fmt 4.6, Leading zero omitted, Abs format (unit mm)*
G04 Created by KiCad (PCBNEW 7.0.10) date 2024-02-12 12:18:25*
%MOMM*%
%LPD*%
G01*
G04 APERTURE LIST*
%ADD10C,0.150000*%
%ADD11C,0.100000*%
%ADD12C,0.120000*%
G04 APERTURE END LIST*
D10*
X240301619Y-124308761D02*
X239825428Y-123975428D01*
X240301619Y-123737333D02*
X239301619Y-123737333D01*
X239301619Y-123737333D02*
X239301619Y-124118285D01*
X239301619Y-124118285D02*
X239349238Y-124213523D01*
X239349238Y-124213523D02*
X239396857Y-124261142D01*
X239396857Y-124261142D02*
X239492095Y-124308761D01*
X239492095Y-124308761D02*
X239634952Y-124308761D01*
X239634952Y-124308761D02*
X239730190Y-124261142D01*
X239730190Y-124261142D02*
X239777809Y-124213523D01*
X239777809Y-124213523D02*
X239825428Y-124118285D01*
X239825428Y-124118285D02*
X239825428Y-123737333D01*
X239301619Y-124594476D02*
X240301619Y-124927809D01*
X240301619Y-124927809D02*
X239301619Y-125261142D01*
X240301619Y-126118285D02*
X240301619Y-125546857D01*
X240301619Y-125832571D02*
X239301619Y-125832571D01*
X239301619Y-125832571D02*
X239444476Y-125737333D01*
X239444476Y-125737333D02*
X239539714Y-125642095D01*
X239539714Y-125642095D02*
X239587333Y-125546857D01*
D11*
X193164619Y-108745695D02*
X193974142Y-108745695D01*
X193974142Y-108745695D02*
X194069380Y-108793314D01*
X194069380Y-108793314D02*
X194117000Y-108840933D01*
X194117000Y-108840933D02*
X194164619Y-108936171D01*
X194164619Y-108936171D02*
X194164619Y-109126647D01*
X194164619Y-109126647D02*
X194117000Y-109221885D01*
X194117000Y-109221885D02*
X194069380Y-109269504D01*
X194069380Y-109269504D02*
X193974142Y-109317123D01*
X193974142Y-109317123D02*
X193164619Y-109317123D01*
X194164619Y-110317123D02*
X194164619Y-109745695D01*
X194164619Y-110031409D02*
X193164619Y-110031409D01*
X193164619Y-110031409D02*
X193307476Y-109936171D01*
X193307476Y-109936171D02*
X193402714Y-109840933D01*
X193402714Y-109840933D02*
X193450333Y-109745695D01*
X216031923Y-61933619D02*
X216031923Y-60933619D01*
X216031923Y-60933619D02*
X215698590Y-61647904D01*
X215698590Y-61647904D02*
X215365257Y-60933619D01*
X215365257Y-60933619D02*
X215365257Y-61933619D01*
X214365257Y-61933619D02*
X214936685Y-61933619D01*
X214650971Y-61933619D02*
X214650971Y-60933619D01*
X214650971Y-60933619D02*
X214746209Y-61076476D01*
X214746209Y-61076476D02*
X214841447Y-61171714D01*
X214841447Y-61171714D02*
X214936685Y-61219333D01*
D10*
X229760132Y-137671200D02*
X229617275Y-137718819D01*
X229617275Y-137718819D02*
X229379180Y-137718819D01*
X229379180Y-137718819D02*
X229283942Y-137671200D01*
X229283942Y-137671200D02*
X229236323Y-137623580D01*
X229236323Y-137623580D02*
X229188704Y-137528342D01*
X229188704Y-137528342D02*
X229188704Y-137433104D01*
X229188704Y-137433104D02*
X229236323Y-137337866D01*
X229236323Y-137337866D02*
X229283942Y-137290247D01*
X229283942Y-137290247D02*
X229379180Y-137242628D01*
X229379180Y-137242628D02*
X229569656Y-137195009D01*
X229569656Y-137195009D02*
X229664894Y-137147390D01*
X229664894Y-137147390D02*
X229712513Y-137099771D01*
X229712513Y-137099771D02*
X229760132Y-137004533D01*
X229760132Y-137004533D02*
X229760132Y-136909295D01*
X229760132Y-136909295D02*
X229712513Y-136814057D01*
X229712513Y-136814057D02*
X229664894Y-136766438D01*
X229664894Y-136766438D02*
X229569656Y-136718819D01*
X229569656Y-136718819D02*
X229331561Y-136718819D01*
X229331561Y-136718819D02*
X229188704Y-136766438D01*
X228855370Y-136718819D02*
X228617275Y-137718819D01*
X228617275Y-137718819D02*
X228426799Y-137004533D01*
X228426799Y-137004533D02*
X228236323Y-137718819D01*
X228236323Y-137718819D02*
X227998228Y-136718819D01*
X227664894Y-136814057D02*
X227617275Y-136766438D01*
X227617275Y-136766438D02*
X227522037Y-136718819D01*
X227522037Y-136718819D02*
X227283942Y-136718819D01*
X227283942Y-136718819D02*
X227188704Y-136766438D01*
X227188704Y-136766438D02*
X227141085Y-136814057D01*
X227141085Y-136814057D02*
X227093466Y-136909295D01*
X227093466Y-136909295D02*
X227093466Y-137004533D01*
X227093466Y-137004533D02*
X227141085Y-137147390D01*
X227141085Y-137147390D02*
X227712513Y-137718819D01*
X227712513Y-137718819D02*
X227093466Y-137718819D01*
X250556028Y-77906419D02*
X250365552Y-77906419D01*
X250365552Y-77906419D02*
X250270314Y-77954038D01*
X250270314Y-77954038D02*
X250175076Y-78049276D01*
X250175076Y-78049276D02*
X250127457Y-78239752D01*
X250127457Y-78239752D02*
X250127457Y-78573085D01*
X250127457Y-78573085D02*
X250175076Y-78763561D01*
X250175076Y-78763561D02*
X250270314Y-78858800D01*
X250270314Y-78858800D02*
X250365552Y-78906419D01*
X250365552Y-78906419D02*
X250556028Y-78906419D01*
X250556028Y-78906419D02*
X250651266Y-78858800D01*
X250651266Y-78858800D02*
X250746504Y-78763561D01*
X250746504Y-78763561D02*
X250794123Y-78573085D01*
X250794123Y-78573085D02*
X250794123Y-78239752D01*
X250794123Y-78239752D02*
X250746504Y-78049276D01*
X250746504Y-78049276D02*
X250651266Y-77954038D01*
X250651266Y-77954038D02*
X250556028Y-77906419D01*
X249222695Y-78906419D02*
X249698885Y-78906419D01*
X249698885Y-78906419D02*
X249698885Y-77906419D01*
X248889361Y-78382609D02*
X248556028Y-78382609D01*
X248413171Y-78906419D02*
X248889361Y-78906419D01*
X248889361Y-78906419D02*
X248889361Y-77906419D01*
X248889361Y-77906419D02*
X248413171Y-77906419D01*
X247984599Y-78906419D02*
X247984599Y-77906419D01*
X247984599Y-77906419D02*
X247746504Y-77906419D01*
X247746504Y-77906419D02*
X247603647Y-77954038D01*
X247603647Y-77954038D02*
X247508409Y-78049276D01*
X247508409Y-78049276D02*
X247460790Y-78144514D01*
X247460790Y-78144514D02*
X247413171Y-78334990D01*
X247413171Y-78334990D02*
X247413171Y-78477847D01*
X247413171Y-78477847D02*
X247460790Y-78668323D01*
X247460790Y-78668323D02*
X247508409Y-78763561D01*
X247508409Y-78763561D02*
X247603647Y-78858800D01*
X247603647Y-78858800D02*
X247746504Y-78906419D01*
X247746504Y-78906419D02*
X247984599Y-78906419D01*
X247222695Y-79001657D02*
X246460790Y-79001657D01*
X245889361Y-78382609D02*
X245746504Y-78430228D01*
X245746504Y-78430228D02*
X245698885Y-78477847D01*
X245698885Y-78477847D02*
X245651266Y-78573085D01*
X245651266Y-78573085D02*
X245651266Y-78715942D01*
X245651266Y-78715942D02*
X245698885Y-78811180D01*
X245698885Y-78811180D02*
X245746504Y-78858800D01*
X245746504Y-78858800D02*
X245841742Y-78906419D01*
X245841742Y-78906419D02*
X246222694Y-78906419D01*
X246222694Y-78906419D02*
X246222694Y-77906419D01*
X246222694Y-77906419D02*
X245889361Y-77906419D01*
X245889361Y-77906419D02*
X245794123Y-77954038D01*
X245794123Y-77954038D02*
X245746504Y-78001657D01*
X245746504Y-78001657D02*
X245698885Y-78096895D01*
X245698885Y-78096895D02*
X245698885Y-78192133D01*
X245698885Y-78192133D02*
X245746504Y-78287371D01*
X245746504Y-78287371D02*
X245794123Y-78334990D01*
X245794123Y-78334990D02*
X245889361Y-78382609D01*
X245889361Y-78382609D02*
X246222694Y-78382609D01*
X245222694Y-78906419D02*
X245222694Y-78239752D01*
X245222694Y-78430228D02*
X245175075Y-78334990D01*
X245175075Y-78334990D02*
X245127456Y-78287371D01*
X245127456Y-78287371D02*
X245032218Y-78239752D01*
X245032218Y-78239752D02*
X244936980Y-78239752D01*
X244175075Y-78906419D02*
X244175075Y-77906419D01*
X244175075Y-78858800D02*
X244270313Y-78906419D01*
X244270313Y-78906419D02*
X244460789Y-78906419D01*
X244460789Y-78906419D02*
X244556027Y-78858800D01*
X244556027Y-78858800D02*
X244603646Y-78811180D01*
X244603646Y-78811180D02*
X244651265Y-78715942D01*
X244651265Y-78715942D02*
X244651265Y-78430228D01*
X244651265Y-78430228D02*
X244603646Y-78334990D01*
X244603646Y-78334990D02*
X244556027Y-78287371D01*
X244556027Y-78287371D02*
X244460789Y-78239752D01*
X244460789Y-78239752D02*
X244270313Y-78239752D01*
X244270313Y-78239752D02*
X244175075Y-78287371D01*
X243175075Y-78906419D02*
X243746503Y-78906419D01*
X243460789Y-78906419D02*
X243460789Y-77906419D01*
X243460789Y-77906419D02*
X243556027Y-78049276D01*
X243556027Y-78049276D02*
X243651265Y-78144514D01*
X243651265Y-78144514D02*
X243746503Y-78192133D01*
D12*
%TO.C,RV1*%
X257216800Y-123284000D02*
X257216800Y-131524000D01*
X240976800Y-123284000D02*
X257216800Y-123284000D01*
X240976800Y-123284000D02*
X240976800Y-131524000D01*
X254216800Y-131524000D02*
X254216800Y-140524000D01*
X243976800Y-131524000D02*
X254216800Y-131524000D01*
X243976800Y-131524000D02*
X243976800Y-140524000D01*
X240976800Y-131524000D02*
X257216800Y-131524000D01*
X252217800Y-140524000D02*
X252217800Y-156524000D01*
X245976800Y-140524000D02*
X252217800Y-140524000D01*
X245976800Y-140524000D02*
X245976800Y-156524000D01*
X243976800Y-140524000D02*
X254216800Y-140524000D01*
X245976800Y-156524000D02*
X252217800Y-156524000D01*
D11*
%TO.C,U1*%
X201557200Y-104427600D02*
X201557200Y-112047600D01*
X197747200Y-104427600D02*
X201557200Y-104427600D01*
X201557200Y-112047600D02*
X197747200Y-112047600D01*
D12*
%TO.C,SW2*%
X222446800Y-123954000D02*
X222446800Y-126674000D01*
X222446800Y-128534000D02*
X222446800Y-131674000D01*
X222446800Y-133534000D02*
X222446800Y-136254000D01*
X222446800Y-136254000D02*
X234746800Y-136254000D01*
X234746800Y-123954000D02*
X222446800Y-123954000D01*
X234746800Y-126674000D02*
X234746800Y-123954000D01*
X234746800Y-131674000D02*
X234746800Y-128534000D01*
X234746800Y-136254000D02*
X234746800Y-133534000D01*
X233275850Y-130064000D02*
G75*
G03*
X224117750Y-130064000I-4579050J0D01*
G01*
X224117750Y-130064000D02*
G75*
G03*
X233275850Y-130064000I4579050J0D01*
G01*
%TO.C,OLED_Brd1*%
X260384600Y-93197600D02*
X260384600Y-65897600D01*
X260384600Y-65897600D02*
X232984600Y-65897600D01*
X259962600Y-85792600D02*
X259962600Y-69192600D01*
X259962600Y-69192600D02*
X236862600Y-69192600D01*
X251683600Y-66386600D02*
X251683600Y-68799600D01*
X251683600Y-66386600D02*
X241904600Y-66386600D01*
X241904600Y-68799600D02*
X251683600Y-68799600D01*
X241904600Y-66386600D02*
X241904600Y-68799600D01*
X236862600Y-85792600D02*
X259962600Y-85792600D01*
X236862600Y-85792600D02*
X233522600Y-85817600D01*
X236862600Y-69192600D02*
X233776600Y-69192600D01*
X233522600Y-85817600D02*
X233522600Y-69180600D01*
X233522600Y-69180600D02*
X233776600Y-69192600D01*
X232984600Y-93197600D02*
X260384600Y-93197600D01*
X232984600Y-65897600D02*
X232984600Y-93197600D01*
%TD*%
M02*
